<!-- icon666.com - MILLIONS vector ICONS FREE --><svg id="Layer_1" enable-background="new 0 0 256 256" viewBox="0 0 256 256" xmlns="http://www.w3.org/2000/svg"><path d="m128.442 51.981c-.828 0-1.5.671-1.5 1.5v18.5c0 .829.672 1.5 1.5 1.5s1.5-.671 1.5-1.5v-18.5c0-.828-.671-1.5-1.5-1.5z" fill="#3a312a"></path><path d="m129.906 53.153c-.181-.808-.983-1.314-1.792-1.136l-82.5 18.5c-.809.182-1.316.984-1.136 1.792.156.698.776 1.172 1.463 1.172.108 0 .219-.012.329-.037l82.5-18.5c.809-.18 1.317-.983 1.136-1.791z" fill="#3a312a"></path><path d="m211.271 70.518-82.5-18.5c-.81-.178-1.611.328-1.792 1.136s.327 1.61 1.136 1.792l82.5 18.5c.11.024.221.037.329.037.687 0 1.307-.475 1.463-1.172.18-.81-.328-1.612-1.136-1.793z" fill="#3a312a"></path><path d="m47.854 26.18c-.974 11.564-13.025 13.389-13.025 13.389 10.347.487 12.925 14.059 12.925 14.059.221-9.677 13.321-14.202 13.321-14.202-9.813-.587-13.221-13.246-13.221-13.246z" fill="#d7e057"></path><path d="m61.166 37.929c-8.604-.515-11.833-12.024-11.864-12.141-.191-.702-.845-1.162-1.584-1.102-.725.066-1.298.642-1.359 1.367-.859 10.215-11.313 11.964-11.754 12.033-.763.115-1.313.79-1.273 1.561.04.77.657 1.384 1.428 1.421 9.028.425 11.499 12.718 11.522 12.842.138.711.76 1.217 1.473 1.217.042 0 .084-.001.126-.005.765-.064 1.357-.693 1.375-1.459.193-8.508 12.191-12.777 12.313-12.819.676-.235 1.092-.914.994-1.623s-.683-1.249-1.397-1.292zm-13.566 10.346c-1.356-3.131-3.709-6.908-7.587-8.877 2.931-1.405 6.408-3.913 8.201-8.273 1.552 3.071 4.2 6.88 8.335 8.723-3.008 1.64-6.923 4.405-8.949 8.427z" fill="#3a312a"></path><path d="m26.155 43.16c-.689 8.179-9.212 9.471-9.212 9.471 7.318.344 9.142 9.944 9.142 9.944.156-6.844 9.422-10.045 9.422-10.045-6.941-.416-9.352-9.37-9.352-9.37z" fill="#d7e057"></path><path d="m35.597 51.032c-5.766-.345-7.972-8.185-7.994-8.265-.189-.702-.869-1.164-1.581-1.102-.726.065-1.3.643-1.361 1.368-.578 6.871-7.646 8.067-7.942 8.114-.763.115-1.313.79-1.273 1.561.04.77.657 1.384 1.428 1.421 6.035.284 7.724 8.644 7.739 8.726.136.713.759 1.22 1.473 1.22.041 0 .083-.002.125-.005.765-.064 1.358-.694 1.376-1.461.13-5.709 8.331-8.634 8.412-8.662.676-.234 1.093-.913.996-1.622-.099-.708-.684-1.25-1.398-1.293zm-9.585 6.795c-.924-1.885-2.34-3.947-4.447-5.28 1.856-1.041 3.698-2.63 4.871-4.916 1.058 1.874 2.654 3.954 4.941 5.223-1.85 1.102-3.989 2.741-5.365 4.973z" fill="#3a312a"></path><path d="m26.155 16.503c-.689 8.179-9.212 9.471-9.212 9.471 7.318.344 9.142 9.944 9.142 9.944.156-6.845 9.422-10.045 9.422-10.045-6.941-.416-9.352-9.37-9.352-9.37z" fill="#d7e057"></path><path d="m35.597 24.375c-5.766-.345-7.972-8.185-7.994-8.265-.189-.702-.869-1.163-1.581-1.102-.726.065-1.3.643-1.361 1.368-.578 6.871-7.646 8.067-7.942 8.114-.763.115-1.313.79-1.273 1.561.04.77.657 1.384 1.428 1.421 6.035.284 7.724 8.643 7.739 8.726.136.712.759 1.22 1.473 1.22.041 0 .083-.002.125-.005.765-.064 1.358-.694 1.376-1.461.13-5.709 8.331-8.633 8.412-8.661.676-.234 1.093-.913.996-1.622-.099-.71-.684-1.251-1.398-1.294zm-9.585 6.795c-.924-1.886-2.34-3.947-4.447-5.28 1.856-1.041 3.698-2.63 4.871-4.916 1.058 1.874 2.654 3.954 4.941 5.223-1.85 1.101-3.989 2.741-5.365 4.973z" fill="#3a312a"></path><path d="m210.442 99.981h-165c-.828 0-1.5.671-1.5 1.5v73c0 .829.672 1.5 1.5 1.5h165c.828 0 1.5-.671 1.5-1.5v-73c0-.828-.671-1.5-1.5-1.5zm-1.5 73h-162v-70h162z" fill="#3a312a"></path><path d="m229.404 72.503h-38.15c-5.544 0-10.039 4.495-10.039 10.039v38.862c0 5.544 4.495 10.039 10.039 10.039h38.15c5.545 0 10.039-4.495 10.039-10.039v-38.862c0-5.545-4.495-10.039-10.039-10.039z" fill="#f16c7a"></path><path d="m229.403 71.003h-38.149c-6.362 0-11.539 5.176-11.539 11.539v38.861c0 6.363 5.177 11.539 11.539 11.539h38.149c6.362 0 11.539-5.176 11.539-11.539v-38.861c0-6.363-5.176-11.539-11.539-11.539zm8.539 50.4c0 4.708-3.831 8.539-8.539 8.539h-38.149c-4.708 0-8.539-3.831-8.539-8.539v-38.861c0-4.708 3.831-8.539 8.539-8.539h38.149c4.708 0 8.539 3.831 8.539 8.539z" fill="#3a312a"></path><path d="m147.018 72.503h-38.15c-5.544 0-10.039 4.495-10.039 10.039v38.862c0 5.544 4.495 10.039 10.039 10.039h38.15c5.544 0 10.039-4.495 10.039-10.039v-38.862c0-5.545-4.495-10.039-10.039-10.039z" fill="#f16c7a"></path><path d="m147.018 71.003h-38.149c-6.362 0-11.539 5.176-11.539 11.539v38.861c0 6.363 5.177 11.539 11.539 11.539h38.149c6.362 0 11.539-5.176 11.539-11.539v-38.861c0-6.363-5.177-11.539-11.539-11.539zm8.539 50.4c0 4.708-3.831 8.539-8.539 8.539h-38.149c-4.708 0-8.539-3.831-8.539-8.539v-38.861c0-4.708 3.831-8.539 8.539-8.539h38.149c4.708 0 8.539 3.831 8.539 8.539z" fill="#3a312a"></path><path d="m175.997 16.503h-96.108c-5.111 0-9.253 4.143-9.253 9.253v18.472c0 5.11 4.143 9.253 9.253 9.253h96.107c5.11 0 9.253-4.143 9.253-9.253v-18.472c.001-5.11-4.142-9.253-9.252-9.253z" fill="#8ac6dd"></path><path d="m175.996 15.003h-55.684c-.828 0-1.5.671-1.5 1.5s.672 1.5 1.5 1.5h55.684c4.275 0 7.754 3.478 7.754 7.753v18.472c0 4.275-3.479 7.753-7.754 7.753h-96.107c-4.275 0-7.753-3.478-7.753-7.753v-18.472c0-4.275 3.478-7.753 7.753-7.753h27.686c.828 0 1.5-.671 1.5-1.5s-.672-1.5-1.5-1.5h-27.686c-5.929 0-10.753 4.824-10.753 10.753v18.472c0 5.93 4.824 10.753 10.753 10.753h96.107c5.93 0 10.754-4.824 10.754-10.753v-18.472c0-5.929-4.824-10.753-10.754-10.753z" fill="#3a312a"></path><path d="m64.631 72.503h-38.15c-5.545 0-10.039 4.495-10.039 10.039v38.862c0 5.544 4.495 10.039 10.039 10.039h38.15c5.544 0 10.039-4.495 10.039-10.039v-38.862c.001-5.545-4.494-10.039-10.039-10.039z" fill="#f16c7a"></path><path d="m64.632 71.003h-38.15c-6.363 0-11.54 5.176-11.54 11.539v38.861c0 6.363 5.177 11.539 11.54 11.539h38.149c6.362 0 11.539-5.176 11.539-11.539v-38.861c.001-6.363-5.176-11.539-11.538-11.539zm8.539 50.4c0 4.708-3.831 8.539-8.539 8.539h-38.15c-4.709 0-8.54-3.831-8.54-8.539v-38.861c0-4.708 3.831-8.539 8.54-8.539h38.149c4.708 0 8.539 3.831 8.539 8.539v38.861z" fill="#3a312a"></path><path d="m145.442 88.943h-35c-.828 0-1.5.671-1.5 1.5s.672 1.5 1.5 1.5h35c.828 0 1.5-.671 1.5-1.5s-.671-1.5-1.5-1.5z" fill="#3a312a"></path><path d="m145.442 111.443h-35c-.828 0-1.5.671-1.5 1.5s.672 1.5 1.5 1.5h35c.828 0 1.5-.671 1.5-1.5s-.671-1.5-1.5-1.5z" fill="#3a312a"></path><path d="m106.018 145.503h-38.15c-5.544 0-10.039 4.495-10.039 10.039v38.862c0 5.545 4.495 10.039 10.039 10.039h38.15c5.544 0 10.039-4.495 10.039-10.039v-38.862c0-5.545-4.495-10.039-10.039-10.039z" fill="#d7e057"></path><path d="m106.018 144.003h-8.687c-.828 0-1.5.671-1.5 1.5s.672 1.5 1.5 1.5h8.687c4.708 0 8.539 3.831 8.539 8.539v38.861c0 4.708-3.831 8.539-8.539 8.539h-38.15c-4.708 0-8.539-3.831-8.539-8.539v-38.861c0-4.708 3.831-8.539 8.539-8.539h16.688c.828 0 1.5-.671 1.5-1.5s-.672-1.5-1.5-1.5h-16.688c-6.362 0-11.539 5.176-11.539 11.539v38.861c0 6.363 5.177 11.539 11.539 11.539h38.149c6.362 0 11.539-5.176 11.539-11.539v-38.861c.001-6.363-5.176-11.539-11.538-11.539z" fill="#3a312a"></path><path d="m104.442 161.943h-35c-.828 0-1.5.671-1.5 1.5s.672 1.5 1.5 1.5h35c.828 0 1.5-.671 1.5-1.5s-.671-1.5-1.5-1.5z" fill="#3a312a"></path><path d="m104.442 184.443h-35c-.828 0-1.5.671-1.5 1.5s.672 1.5 1.5 1.5h35c.828 0 1.5-.671 1.5-1.5s-.671-1.5-1.5-1.5z" fill="#3a312a"></path><path d="m188.018 145.503h-38.15c-5.544 0-10.039 4.495-10.039 10.039v38.862c0 5.544 4.495 10.039 10.039 10.039h38.15c5.544 0 10.039-4.495 10.039-10.039v-38.862c0-5.545-4.495-10.039-10.039-10.039z" fill="#d7e057"></path><g fill="#3a312a"><path d="m188.018 144.003h-38.149c-6.362 0-11.539 5.176-11.539 11.539v38.861c0 6.363 5.177 11.539 11.539 11.539h38.149c6.362 0 11.539-5.176 11.539-11.539v-38.861c0-6.363-5.177-11.539-11.539-11.539zm8.539 50.4c0 4.708-3.831 8.539-8.539 8.539h-38.149c-4.708 0-8.539-3.831-8.539-8.539v-38.861c0-4.708 3.831-8.539 8.539-8.539h38.149c4.708 0 8.539 3.831 8.539 8.539z"></path><path d="m186.442 161.943h-35c-.828 0-1.5.671-1.5 1.5s.672 1.5 1.5 1.5h35c.828 0 1.5-.671 1.5-1.5s-.671-1.5-1.5-1.5z"></path><path d="m186.442 184.443h-35c-.828 0-1.5.671-1.5 1.5s.672 1.5 1.5 1.5h35c.828 0 1.5-.671 1.5-1.5s-.671-1.5-1.5-1.5z"></path><path d="m62.442 88.943h-35c-.828 0-1.5.671-1.5 1.5s.672 1.5 1.5 1.5h35c.828 0 1.5-.671 1.5-1.5s-.671-1.5-1.5-1.5z"></path><path d="m62.442 111.443h-35c-.828 0-1.5.671-1.5 1.5s.672 1.5 1.5 1.5h35c.828 0 1.5-.671 1.5-1.5s-.671-1.5-1.5-1.5z"></path><path d="m227.442 88.943h-35c-.828 0-1.5.671-1.5 1.5s.672 1.5 1.5 1.5h35c.828 0 1.5-.671 1.5-1.5s-.671-1.5-1.5-1.5z"></path><path d="m227.442 111.443h-35c-.828 0-1.5.671-1.5 1.5s.672 1.5 1.5 1.5h35c.828 0 1.5-.671 1.5-1.5s-.671-1.5-1.5-1.5z"></path><path d="m87.892 203.32c-.641-.523-1.587-.429-2.11.212l-27.375 33.5c-.524.642-.43 1.586.212 2.111.278.228.614.338.948.338.435 0 .866-.188 1.162-.551l27.375-33.5c.524-.641.429-1.586-.212-2.11z"></path><path d="m115.479 237.032-27.375-33.5c-.523-.642-1.47-.736-2.11-.212-.642.524-.736 1.469-.212 2.111l27.375 33.5c.296.363.728.551 1.162.551.334 0 .67-.111.948-.338.641-.525.736-1.47.212-2.112z"></path></g><circle cx="62.943" cy="233.981" fill="#fae6ca" r="5.5"></circle><path d="m62.942 226.981c-3.859 0-7 3.14-7 7s3.141 7 7 7 7-3.14 7-7-3.14-7-7-7zm0 11c-2.206 0-4-1.794-4-4s1.794-4 4-4 4 1.794 4 4-1.794 4-4 4z" fill="#3a312a"></path><circle cx="110.943" cy="233.981" fill="#fae6ca" r="5.5"></circle><path d="m110.942 226.981c-3.859 0-7 3.14-7 7s3.141 7 7 7 7-3.14 7-7-3.14-7-7-7zm0 11c-2.206 0-4-1.794-4-4s1.794-4 4-4 4 1.794 4 4-1.794 4-4 4z" fill="#3a312a"></path><path d="m169.892 203.32c-.641-.523-1.587-.429-2.11.212l-27.375 33.5c-.524.642-.43 1.586.212 2.111.278.228.614.338.948.338.435 0 .866-.188 1.162-.551l27.375-33.5c.524-.641.429-1.586-.212-2.11z" fill="#3a312a"></path><path d="m197.479 237.032-27.375-33.5c-.523-.642-1.47-.736-2.11-.212-.642.524-.736 1.469-.212 2.111l27.375 33.5c.296.363.728.551 1.162.551.334 0 .67-.111.948-.338.641-.525.736-1.47.212-2.112z" fill="#3a312a"></path><circle cx="144.943" cy="233.981" fill="#fae6ca" r="5.5"></circle><path d="m144.942 226.981c-3.859 0-7 3.14-7 7s3.141 7 7 7 7-3.14 7-7-3.14-7-7-7zm0 11c-2.206 0-4-1.794-4-4s1.794-4 4-4 4 1.794 4 4-1.794 4-4 4z" fill="#3a312a"></path><circle cx="192.943" cy="233.981" fill="#fae6ca" r="5.5"></circle><path d="m192.942 226.981c-3.859 0-7 3.14-7 7s3.141 7 7 7 7-3.14 7-7-3.14-7-7-7zm0 11c-2.206 0-4-1.794-4-4s1.794-4 4-4 4 1.794 4 4-1.794 4-4 4z" fill="#3a312a"></path><path d="m170.442 33.481h-85c-.828 0-1.5.671-1.5 1.5s.672 1.5 1.5 1.5h85c.828 0 1.5-.671 1.5-1.5 0-.828-.671-1.5-1.5-1.5z" fill="#3a312a"></path><path d="m229.403 74.001h-15c4.71 0 8.54 3.83 8.54 8.54v6.4h4.5c.83 0 1.5.67 1.5 1.5s-.67 1.5-1.5 1.5h-4.5v19.5h4.5c.83 0 1.5.67 1.5 1.5s-.67 1.5-1.5 1.5h-4.5v6.96c0 4.71-3.83 8.54-8.54 8.54h15c4.71 0 8.54-3.83 8.54-8.54v-38.86c0-4.71-3.83-8.54-8.54-8.54z" fill="#d34e5c"></path><path d="m175.993 18.001h-15c4.28 0 7.76 3.48 7.76 7.75v7.73h1.69c.83 0 1.5.67 1.5 1.5s-.67 1.5-1.5 1.5h-1.69v7.75c0 4.27-3.48 7.75-7.76 7.75h15c4.28 0 7.76-3.48 7.76-7.75v-18.48c0-4.27-3.48-7.75-7.76-7.75z" fill="#6ca8bf"></path><path d="m188.023 147.001h-15c4.7 0 8.53 3.83 8.53 8.54v6.4h4.89c.83 0 1.5.67 1.5 1.5s-.67 1.5-1.5 1.5h-4.89v19.5h4.89c.83 0 1.5.67 1.5 1.5s-.67 1.5-1.5 1.5h-4.89v6.96c0 4.71-3.83 8.54-8.53 8.54h15c4.7 0 8.53-3.83 8.53-8.54v-38.86c0-4.71-3.83-8.54-8.53-8.54z" fill="#b9c239"></path></svg>